Coordinates
version=1
nRows=10
nColumns=33
inDegrees=yes

Units are S.I. units (second, meters, Newtons, ...)
Angles are in degrees.

endheader
time	ground_thorax_rot_x	ground_thorax_rot_y	ground_thorax_rot_z	ground_thorax_tx	ground_thorax_ty	ground_thorax_tz	clav_prot_r	clav_elev_r	scapula_abduction_r	scapula_elevation_r	scapula_upward_rot_r	scapula_winging_r	shoulder_elv_r	plane_of_elev_r	axial_rot_r	elbow_flexion_r	pro_sup_r	wrist_flex_r	wrist_dev_r	clav_prot_l	clav_elev_l	scapula_abduction_l	scapula_elevation_l	scapula_upward_rot_l	scapula_winging_l	shoulder_elv_l	plane_of_elev_l	axial_rot_l	elbow_flexion_l	pro_sup_l	wrist_flex_l	wrist_dev_l
      1.81000000	      0.07848908	      0.49564106	      0.17345780	     -0.15703178	      0.98785516	      0.00065074	    -10.79467048	     -0.65649533	    -16.08289988	      5.91414333	      1.41747679	      1.03514044	     49.22424854	    -46.11947574	     42.92045314	     79.40755416	      1.78607967	     30.06831997	    -13.08726852	     -6.77257596	     -1.04053621	     10.00403300	     -7.11671128	     -5.16309923	     -2.19561125	     44.96072069	    -48.88474625	    -19.70489525	     82.21058760	     17.25356941	    -21.48130680	    -24.99999983
      1.82000000	      0.04356225	      0.47353631	     -0.47262471	     -0.15670254	      0.98789506	      0.00054400	    -10.87391633	     -1.05103424	    -16.08583950	      5.53786954	      1.43161212	      1.08523333	     49.23221020	    -45.73487713	     42.46116594	     79.88771613	      1.82647323	     29.59274937	    -13.07672180	     -6.88848585	     -1.32646043	     10.19537570	     -6.92356305	     -5.35296579	     -2.30122704	     44.91573348	    -48.21591079	    -18.73259983	     82.64059920	     17.13507099	    -20.59075245	    -24.99999983
      1.83000000	      0.01720945	      0.56612776	     -0.31983344	     -0.15634467	      0.98776899	      0.00037406	    -10.91442906	     -1.03234103	    -16.14061964	      5.53307868	      1.48234428	      1.07817852	     49.26010020	    -45.73528589	     42.33411389	     80.19271201	      1.82350927	     29.52579584	    -13.07673014	     -6.93780876	     -1.32349915	     10.27574867	     -6.91365781	     -5.32492094	     -2.31063357	     44.91573583	    -48.12978965	    -18.59292919	     83.00134559	     17.11503102	    -20.42221395	    -24.99999983
      1.84000000	     -0.09619546	      0.62889667	     -0.28396061	     -0.15646050	      0.98778414	      0.00036053	    -10.68607859	     -1.26825028	    -15.86627130	      5.50523977	      1.02817916	      1.19085771	     49.37279592	    -45.74309697	     41.56766340	     80.94766442	      1.99989149	     27.17325694	    -12.65440858	     -6.66837111	     -1.38374786	     10.03575767	     -7.16714650	     -6.05425561	     -2.42213987	     45.32030418	    -47.66784774	    -17.36021654	     83.67219055	     17.02114195	    -16.24308261	    -24.99999983
      1.85000000	     -0.12195936	      0.67485786	     -0.08577101	     -0.15625474	      0.98817119	      0.00025345	    -10.68814778	     -1.30732349	    -15.82719598	      5.44364085	      1.09085185	      1.17185428	     49.38157024	    -45.63412721	     41.52294325	     81.03396008	      1.99680083	     27.18430672	    -12.65720997	     -6.67888991	     -1.42450207	     10.02073545	     -7.10615060	     -6.00201241	     -2.42000019	     45.33138673	    -47.56908378	    -17.33860214	     83.74344448	     17.01711659	    -16.24354546	    -24.99999983
      1.86000000	     -0.10454108	      0.77811343	     -0.57593870	     -0.15565931	      0.98801216	      0.00017092	    -10.82438442	     -1.49653118	    -15.94480409	      5.20696177	      1.22602838	      1.18490272	     49.24345855	    -45.24897546	     40.97756188	     81.55520988	      1.95819933	     26.91939810	    -12.61350700	     -6.79036795	     -1.59951089	     10.13644159	     -6.89250454	     -5.89004446	     -2.43668300	     45.24681498	    -46.92487414	    -16.94940652	     84.16024877	     16.97899626	    -15.76532209	    -24.76348071
      1.87000000	     -0.23825408	      0.87939918	     -0.75832835	     -0.15531861	      0.98805410	      0.00013160	    -10.83672954	     -1.67197875	    -15.93022011	      5.06134812	      1.18013428	      1.22089268	     48.93294696	    -44.96236872	     40.25584203	     81.91780825	      1.83315597	     25.86192596	    -12.35968893	     -6.77781012	     -1.58338619	     10.10720770	     -6.89522057	     -5.85943864	     -2.42254023	     45.31554351	    -46.37748085	    -16.53229675	     84.67372640	     16.93613622	    -14.35913313	    -23.79618487
      1.88000000	     -0.26603656	      0.90809742	     -0.50631927	     -0.15496041	      0.98847124	      0.00005061	    -10.82955463	     -1.72127236	    -15.86881372	      4.98726000	      1.25040570	      1.20698751	     48.93251178	    -44.82538557	     40.21400868	     82.03649875	      1.82891362	     25.86645253	    -12.35750521	     -6.77613372	     -1.63682288	     10.06640316	     -6.82110989	     -5.80112070	     -2.40674469	     45.32704808	    -46.24223789	    -16.52730825	     84.77753703	     16.93299815	    -14.34816114	    -23.79675245
      1.89000000	     -0.29519011	      0.97980444	     -0.60176197	     -0.15445743	      0.98800289	     -0.00005147	    -10.81492540	     -1.75058340	    -15.77231686	      4.90798035	      1.38082887	      1.16534954	     48.88341963	    -44.56264702	     40.03068090	     82.58741071	      1.78438755	     25.78415054	    -12.32860631	     -6.75954875	     -1.64744698	      9.99105634	     -6.76130289	     -5.68179199	     -2.37396958	     45.34571723	    -45.89531921	    -16.47962245	     85.28137091	     16.90646428	    -14.19765831	    -23.67236401
      1.90000000	     -0.55444121	      1.11221630	     -0.74382933	     -0.15442914	      0.98784958	      0.00002782	    -10.64163407	     -1.90684720	    -15.52909814	      4.86758993	      1.13509631	      1.22284305	     48.10729082	    -44.27248917	     38.50172519	     83.11769312	      1.28399554	     22.87889626	    -11.55197397	     -6.56137453	     -1.35896846	      9.76679521	     -7.09998833	     -5.83291999	     -2.32127566	     45.46604479	    -44.88901050	    -15.76810134	     86.18704775	     16.92593281	    -11.09973116	    -20.11860862
